<svg width="34" height="38" viewBox="0 0 34 38" fill="none" xmlns="http://www.w3.org/2000/svg">
<g filter="url(#filter0_d_1846_20949)">
<path d="M17 10.25C15.1773 10.2521 13.4298 10.9771 12.1409 12.2659C10.8521 13.5548 10.1271 15.3023 10.125 17.125C10.125 23.0078 16.375 27.4508 16.6414 27.6367C16.7465 27.7103 16.8717 27.7498 17 27.7498C17.1283 27.7498 17.2535 27.7103 17.3586 27.6367C17.625 27.4508 23.875 23.0078 23.875 17.125C23.8729 15.3023 23.1479 13.5548 21.8591 12.2659C20.5702 10.9771 18.8227 10.2521 17 10.25ZM17 14.625C17.4945 14.625 17.9778 14.7716 18.3889 15.0463C18.8 15.321 19.1205 15.7115 19.3097 16.1683C19.4989 16.6251 19.5484 17.1278 19.452 17.6127C19.3555 18.0977 19.1174 18.5431 18.7678 18.8928C18.4181 19.2424 17.9727 19.4805 17.4877 19.577C17.0028 19.6734 16.5001 19.6239 16.0433 19.4347C15.5865 19.2455 15.196 18.925 14.9213 18.5139C14.6466 18.1028 14.5 17.6195 14.5 17.125C14.5 16.462 14.7634 15.8261 15.2322 15.3572C15.7011 14.8884 16.337 14.625 17 14.625Z" fill="#549BA0"/>
</g>
<defs>
<filter id="filter0_d_1846_20949" x="-3" y="-1" width="40" height="40" filterUnits="userSpaceOnUse" color-interpolation-filters="sRGB">
<feFlood flood-opacity="0" result="BackgroundImageFix"/>
<feColorMatrix in="SourceAlpha" type="matrix" values="0 0 0 0 0 0 0 0 0 0 0 0 0 0 0 0 0 0 127 0" result="hardAlpha"/>
<feOffset/>
<feGaussianBlur stdDeviation="5"/>
<feComposite in2="hardAlpha" operator="out"/>
<feColorMatrix type="matrix" values="0 0 0 0 0 0 0 0 0 0 0 0 0 0 0 0 0 0 0.09 0"/>
<feBlend mode="normal" in2="BackgroundImageFix" result="effect1_dropShadow_1846_20949"/>
<feBlend mode="normal" in="SourceGraphic" in2="effect1_dropShadow_1846_20949" result="shape"/>
</filter>
</defs>
</svg>
